<svg enable-background="new 0 0 665.1 110" viewBox="0 0 665.1 110" xmlns="http://www.w3.org/2000/svg"><g fill="#020020"><path d="m26.8 26.4 45.8 24c.6.3 1.3.3 1.9 0l45.8-24c.9-.5.9-1.7 0-2.2l-45.8-24c-.6-.3-1.3-.3-1.9 0l-45.8 24c-.9.5-.9 1.7 0 2.2zm-12.7 22.2 58.5 30.6c.6.3 1.3.3 1.9 0l58.5-30.6c.9-.5.9-1.7 0-2.2l-16.8-8.8-41.7 21.9c-.6.3-1.3.3-1.9 0l-41.7-21.8-16.8 8.8c-.9.4-.9 1.6 0 2.1zm132.3 21.3-18.4-9.6-53.5 28.1c-.6.3-1.3.3-1.9 0l-53.6-28.1-18.4 9.6c-.9.5-.9 1.7 0 2.2l71.9 37.7c.6.3 1.3.3 1.9 0l71.9-37.7c1-.5 1-1.7.1-2.2z"/><path d="m425.6 79.9c-3.2 2.6-7.5 4.3-12.9 4.3-6.3 0-11.3-2.2-13.8-5.2v24h-12.7v-72.9h10.9l.8 5.8c3.1-4.9 9-7 14.8-7 5.3 0 9.5 1.8 12.8 4.5 6.3 5.2 9.4 13.1 9.4 23 .1 10.3-3 18.3-9.3 23.5zm-6.8-36.2c-1.8-2.3-4.6-4.2-8.5-4.2-9.9 0-12 9.4-12 17s2 16.9 12 16.9c4 0 6.7-1.8 8.5-4.2 2.6-3.4 3.3-8.2 3.3-12.8 0-4.4-.7-9.2-3.3-12.7z"/><path d="m178.5 82.8v-71.8h13.1v59.5h24.8l7.2 12.4z"/><path d="m365.5 82.8-.8-5.8c-3.1 4.9-9 7-14.8 7-5.3 0-9.6-1.8-12.8-4.4-6.3-5.2-9.3-13.1-9.3-23 0-10.3 3.1-18.3 9.4-23.5 3.2-2.6 7.5-4.2 12.8-4.2 6.7 0 11.5 2.2 13.8 5v-22.9h12.6v71.8zm-13-43.3c-3.9 0-6.7 1.8-8.5 4.1-2.6 3.4-3.3 8.2-3.3 12.7s.7 9.4 3.3 12.8c1.8 2.3 4.6 4.1 8.5 4.1 9.9 0 11.9-9.4 11.9-17s-2-16.7-11.9-16.7z"/><path d="m538.1 77.1c-5-3.4-11.8-3.5-17.1-3.5h-8.7c-2.6 0-5.8-.7-5.8-3.8 0-1.7 1.4-3 2.6-3.7 2.6.9 5.6 1.4 8.5 1.4 11.3 0 21-6.9 21-18 0-8.3-6.5-10.9-6.6-11.1h10.9l5.5-9.4h-30.8c-11.8 0-21.5 6.8-21.5 19.3 0 5.4 2 9.7 5.3 12.9-4.2 2.6-6.3 6.2-6.3 10.6 0 3.4 1.9 7.2 5.3 9-6.1 3-8 10.9-4.6 17.6 5.9 8.1 14.9 9 23.3 9 11.7 0 25.4-3.7 25.4-17.6 0-5.1-1.9-9.5-6.4-12.7zm-20.4-38.7c5.8 0 9.3 4.1 9.3 9.8s-3.5 9.7-9.3 9.7-9.3-4-9.3-9.7 3.5-9.8 9.3-9.8zm.9 59c-5 0-13.3-.6-13.3-7.3 0-3.3 2-5.7 4.8-6.5h9.9c4.8 0 12.5 0 12.5 6.5 0 7-8.9 7.3-13.9 7.3z"/><path d="m643 31.6v-1.5"/><path d="m653.2 41.8c-3.7 0-6.5-2.9-6.5-6.6s2.8-6.6 6.5-6.6 6.5 2.9 6.5 6.6-2.7 6.6-6.5 6.6zm0-12.1c-3.2 0-5.3 2.3-5.3 5.5s2.1 5.5 5.3 5.5 5.3-2.3 5.3-5.5-2.1-5.5-5.3-5.5zm1.5 8.8-1.2-2.5h-1.4v2.5h-1.1v-6.9h2.5c1.3 0 2.4.8 2.4 2.2 0 .9-.4 1.6-1.2 2l1.3 2.7zm-1.2-5.7h-1.4v2.1h1.4c.7 0 1.2-.3 1.2-1.1 0-.7-.5-1-1.2-1z"/><path d="m620.7 84.2c-2.9 0-6.3-.4-9.1-1.3-6.7-2.2-12.3-7.2-13.8-14.2l10.3-3.7c1.1 6.1 7 9 12.7 9 3.2 0 5.6-.4 7.5-1.5 1.7-1 2.6-2.4 2.6-4.2 0-3.2-2-4.9-5.4-5.5l-12.6-2.2c-8.6-1.5-13.3-7.6-13.3-14.2 0-10.3 9.3-17.4 21.2-17.4 10.2 0 18.4 4.3 20.9 13.8l-10.4 4c-1.1-5.3-5.9-7.8-10.4-7.8-1.7 0-3.4.1-5.2.8-2.3.9-4 2.5-4 5.1 0 3.7 3.2 4.3 6.1 4.8l10.5 2c8.3 1.6 14.6 6.9 14.6 15.1-.2 10.6-8.7 17.4-22.2 17.4z"/><path d="m268.5 59.7h-35.9c.1 7.9 6.1 13.3 13.4 13.3 7.1 0 10.8-3.6 12.7-8.3l9.9 4.2c-2.6 7.9-10.5 14.8-22.4 14.8-15.3 0-26.4-11.2-26.4-27.6 0-14.8 9.1-27.8 25.2-27.8 8.8 0 16 3.8 20.2 11 2.8 4.8 3.7 10.3 3.6 16 0 2.7-.3 4.4-.3 4.4zm-15.4-18c-1.8-1.9-4.6-3.1-8.2-3.1-6.7 0-11.8 4.8-12.4 12h23.6c0-3.7-1-6.7-3-8.9z"/><path d="m319.7 69.8c0 2.4 1.4 3.3 3.5 3.3.8 0 1.5-.2 1.5-.2v8.9c-1.4 1-2.9 1.8-6 1.8-5.5 0-9.3-3.4-9.7-7.4-2.9 4.4-8.5 7.9-16 7.9-12.6 0-19-7.9-19-16.5 0-10 7.8-15.8 17.8-16.5l15.5-1.1v-2.1c0-5.6-3.7-8.8-9.9-8.8-7.1 0-10.5 3.4-11.4 8.7l-10.6-2.3c.8-8.8 9.2-16.6 22.4-16.6 13.7 0 22 6.7 22 20zm-12.4-10.4-13.4 1c-3.8.3-7.6 2.6-7.6 6.9 0 4.1 3.3 6.6 7.5 6.6 7.9 0 13.5-4.3 13.5-12.1z"/><path d="m484.6 69.8c0 2.4 1.4 3.3 3.5 3.3.8 0 1.5-.2 1.5-.2v8.9c-1.4 1-2.9 1.8-6 1.8-5.5 0-9.3-3.4-9.7-7.4-2.9 4.4-8.5 7.9-16 7.9-12.6 0-19-7.9-19-16.5 0-10 7.8-15.8 17.8-16.5l15.5-1.1v-2.1c0-5.6-3.7-8.8-9.9-8.8-7.1 0-10.5 3.4-11.4 8.7l-10.6-2.3c.8-8.8 9.2-16.6 22.4-16.6 13.7 0 22 6.7 22 20zm-12.3-10.4-13.4 1c-3.8.3-7.6 2.6-7.6 6.9 0 4.1 3.3 6.6 7.5 6.6 7.9 0 13.5-4.3 13.5-12.1z"/><path d="m594.3 59.7h-35.9c.1 7.9 6.1 13.3 13.4 13.3 7.1 0 10.8-3.6 12.7-8.3l9.9 4.2c-2.6 7.9-10.5 14.8-22.4 14.8-15.3 0-26.4-11.2-26.4-27.6 0-14.8 9.1-27.8 25.2-27.8 8.8 0 16 3.8 20.2 11 2.8 4.8 3.7 10.3 3.6 16 0 2.7-.3 4.4-.3 4.4zm-15.4-18c-1.8-1.9-4.6-3.1-8.2-3.1-6.7 0-11.8 4.8-12.4 12h23.7c-.1-3.7-1.1-6.7-3.1-8.9z"/></g></svg>