<svg height="24" viewBox="0 0 32 24" width="32" xmlns="http://www.w3.org/2000/svg"><path d="m31.8836996 15.2182255-3.9957897-2.0906117-11.667783 6.1054054c-.1300121.0684922-.2856423.0684922-.4156544 0l-11.66714249-6.1054054-3.99514932 2.0906117c-.18957425.0992176-.18957425.3699857 0 .4692034l15.66229181 8.1966572c.1300121.067852.2856423.067852.4156544 0l15.6635727-8.1966572c.1895743-.0985775.1895743-.3699858 0-.4692034m-28.81400568-4.6446658 12.73477858 6.6642248c.1300121.0684922.2856423.0684922.4156544 0l12.7360595-6.6642248c.1895743-.0992176.1895743-.3706258 0-.4698435l-3.6518662-1.91073967-9.0841933 4.75348507c-.1300121.0684922-.2850018.0684922-.4156544 0l-9.08355283-4.75348507-3.65122575 1.91073967c-.18957426.0992177-.18957426.3706259 0 .4698435m2.76868074-4.83733993 9.96609784 5.21500713c.1300121.0684922.2856423.0684922.4156544 0l9.9667383-5.21500713c.1895743-.09921764.1895743-.37062589 0-.46984353l-9.9667383-5.21500711c-.1300121-.06849217-.2856423-.06849217-.4156544 0l-9.96609784 5.21500711c-.1889338.09921764-.1889338.37062589 0 .46984353" fill-rule="evenodd"/></svg>